<svg xmlns="http://www.w3.org/2000/svg" xmlns:xlink="http://www.w3.org/1999/xlink" width="500" zoomAndPan="magnify" viewBox="0 0 375 374.999991" height="500" preserveAspectRatio="xMidYMid meet" version="1.0"><defs><clipPath id="1e536fdd80"><path d="M 35 1.703125 L 340 1.703125 L 340 372.953125 L 35 372.953125 Z M 35 1.703125 " clip-rule="nonzero"/></clipPath></defs><g clip-path="url(#1e536fdd80)"><path fill="#ffffff" d="M 143.777344 1.703125 C 137.375 1.703125 132.195312 9.160156 132.195312 15.558594 L 132.195312 21.042969 C 132.195312 25.574219 134.804688 29.46875 138.582031 31.363281 C 138.523438 32.113281 138.472656 32.871094 138.472656 33.636719 L 138.472656 142.640625 C 136.757812 145.867188 135.089844 149.230469 133.277344 152.5625 L 39.601562 322.007812 C 24.515625 349.738281 53.222656 373.316406 70.128906 373.316406 L 304.519531 373.316406 C 321.425781 373.316406 350.4375 350.300781 335.046875 322.007812 L 241.378906 152.5625 C 239.566406 149.230469 237.898438 145.867188 236.183594 142.640625 L 236.183594 33.636719 C 236.183594 32.871094 236.132812 32.113281 236.074219 31.363281 C 239.851562 29.46875 242.460938 25.570312 242.460938 21.042969 L 242.460938 15.558594 C 242.460938 9.160156 237.316406 1.703125 230.917969 1.703125 Z M 143.777344 1.703125 " fill-opacity="1" fill-rule="nonzero"/></g><path fill="#ffc700" d="M 169.324219 138.65625 L 205.46875 138.65625 C 219.851562 138.65625 224.558594 152.054688 231.429688 164.761719 L 313.0625 315.679688 C 329.546875 346.160156 301.484375 359.566406 287.101562 359.566406 L 87.691406 359.566406 C 73.308594 359.566406 47.039062 342.839844 61.730469 315.679688 L 143.363281 164.761719 C 150.234375 152.054688 154.941406 138.65625 169.320312 138.65625 Z M 169.324219 138.65625 " fill-opacity="1" fill-rule="nonzero"/><path fill="#ffc700" d="M 150.273438 25.144531 L 224.433594 25.144531 L 224.433594 161.042969 L 150.273438 161.042969 Z M 150.273438 25.144531 " fill-opacity="1" fill-rule="nonzero"/><path fill="#ffc700" d="M 143.691406 21.878906 L 143.691406 16.496094 C 143.691406 16.167969 143.722656 15.84375 143.785156 15.527344 C 143.851562 15.207031 143.945312 14.894531 144.070312 14.59375 C 144.195312 14.292969 144.347656 14.007812 144.527344 13.734375 C 144.710938 13.464844 144.914062 13.214844 145.144531 12.984375 C 145.375 12.753906 145.625 12.546875 145.898438 12.367188 C 146.167969 12.183594 146.453125 12.03125 146.757812 11.90625 C 147.058594 11.78125 147.367188 11.6875 147.6875 11.625 C 148.007812 11.5625 148.332031 11.53125 148.65625 11.53125 L 225.933594 11.53125 C 226.257812 11.53125 226.582031 11.5625 226.902344 11.625 C 227.21875 11.6875 227.53125 11.78125 227.832031 11.90625 C 228.132812 12.03125 228.417969 12.183594 228.691406 12.367188 C 228.960938 12.546875 229.210938 12.753906 229.441406 12.984375 C 229.671875 13.214844 229.878906 13.464844 230.058594 13.734375 C 230.242188 14.007812 230.394531 14.292969 230.519531 14.59375 C 230.644531 14.894531 230.738281 15.207031 230.800781 15.527344 C 230.867188 15.84375 230.898438 16.167969 230.898438 16.496094 L 230.898438 21.878906 C 230.898438 22.203125 230.867188 22.527344 230.800781 22.847656 C 230.738281 23.167969 230.644531 23.476562 230.519531 23.777344 C 230.394531 24.078125 230.242188 24.367188 230.058594 24.636719 C 229.878906 24.90625 229.671875 25.160156 229.441406 25.390625 C 229.210938 25.621094 228.960938 25.824219 228.691406 26.007812 C 228.417969 26.1875 228.132812 26.339844 227.832031 26.464844 C 227.53125 26.589844 227.21875 26.683594 226.902344 26.746094 C 226.582031 26.8125 226.257812 26.84375 225.933594 26.84375 L 148.65625 26.84375 C 148.332031 26.84375 148.007812 26.8125 147.6875 26.746094 C 147.367188 26.683594 147.058594 26.589844 146.757812 26.464844 C 146.453125 26.339844 146.167969 26.1875 145.898438 26.007812 C 145.625 25.824219 145.375 25.621094 145.144531 25.390625 C 144.914062 25.160156 144.710938 24.90625 144.527344 24.636719 C 144.347656 24.367188 144.195312 24.078125 144.070312 23.777344 C 143.945312 23.476562 143.851562 23.167969 143.785156 22.847656 C 143.722656 22.527344 143.691406 22.203125 143.691406 21.878906 Z M 143.691406 21.878906 " fill-opacity="1" fill-rule="nonzero"/><path fill="#ffffff" d="M 235.003906 186.988281 L 300.15625 310.839844 C 314.417969 337.953125 289.921875 349.640625 277.207031 349.640625 L 100.914062 349.640625 C 88.203125 349.640625 64.925781 334.824219 77.964844 310.839844 L 141.84375 193.367188 C 198.3125 215.519531 218.855469 153.949219 235.003906 186.988281 Z M 235.003906 186.988281 " fill-opacity="1" fill-rule="nonzero"/><path fill="#ffc700" d="M 195.351562 277.027344 C 195.351562 288.648438 185.929688 298.074219 174.304688 298.074219 C 162.679688 298.074219 153.257812 288.648438 153.257812 277.027344 C 153.257812 265.402344 162.679688 255.980469 174.304688 255.980469 C 185.929688 255.980469 195.351562 265.402344 195.351562 277.027344 Z M 195.351562 277.027344 " fill-opacity="1" fill-rule="nonzero"/><path fill="#ffc700" d="M 165.433594 251.847656 C 165.433594 258.71875 159.867188 264.285156 152.996094 264.285156 C 146.128906 264.285156 140.5625 258.71875 140.5625 251.847656 C 140.5625 244.980469 146.128906 239.410156 152.996094 239.410156 C 159.867188 239.410156 165.433594 244.980469 165.433594 251.847656 Z M 165.433594 251.847656 " fill-opacity="1" fill-rule="nonzero"/><path fill="#ffc700" d="M 214.53125 227.628906 C 214.53125 231.679688 211.246094 234.964844 207.195312 234.964844 C 203.144531 234.964844 199.859375 231.679688 199.859375 227.628906 C 199.859375 223.578125 203.144531 220.296875 207.195312 220.296875 C 211.246094 220.296875 214.53125 223.578125 214.53125 227.628906 Z M 214.53125 227.628906 " fill-opacity="1" fill-rule="nonzero"/><path fill="#ffffff" d="M 206.25 27.96875 C 206.601562 27.96875 206.949219 28.003906 207.292969 28.074219 C 207.636719 28.140625 207.972656 28.242188 208.296875 28.375 C 208.621094 28.511719 208.929688 28.675781 209.21875 28.871094 C 209.511719 29.066406 209.78125 29.285156 210.03125 29.535156 C 210.277344 29.785156 210.5 30.054688 210.695312 30.34375 C 210.890625 30.636719 211.054688 30.945312 211.1875 31.269531 C 211.320312 31.59375 211.421875 31.925781 211.492188 32.269531 C 211.558594 32.617188 211.59375 32.960938 211.59375 33.3125 L 211.59375 138.929688 C 211.59375 139.28125 211.558594 139.628906 211.492188 139.972656 C 211.421875 140.316406 211.320312 140.648438 211.1875 140.972656 C 211.054688 141.296875 210.890625 141.605469 210.695312 141.898438 C 210.5 142.191406 210.277344 142.460938 210.03125 142.707031 C 209.78125 142.957031 209.511719 143.179688 209.21875 143.371094 C 208.929688 143.566406 208.621094 143.730469 208.296875 143.867188 C 207.972656 144 207.636719 144.101562 207.292969 144.171875 C 206.949219 144.238281 206.601562 144.273438 206.25 144.273438 C 205.898438 144.273438 205.550781 144.238281 205.207031 144.171875 C 204.863281 144.101562 204.53125 144 204.207031 143.867188 C 203.882812 143.730469 203.574219 143.566406 203.28125 143.371094 C 202.988281 143.179688 202.71875 142.957031 202.472656 142.707031 C 202.222656 142.460938 202.003906 142.191406 201.808594 141.898438 C 201.613281 141.605469 201.449219 141.296875 201.3125 140.972656 C 201.179688 140.648438 201.078125 140.316406 201.007812 139.972656 C 200.941406 139.628906 200.90625 139.28125 200.90625 138.929688 L 200.90625 33.3125 C 200.90625 32.960938 200.941406 32.617188 201.007812 32.269531 C 201.078125 31.925781 201.179688 31.59375 201.3125 31.269531 C 201.449219 30.945312 201.613281 30.636719 201.808594 30.34375 C 202.003906 30.054688 202.222656 29.785156 202.472656 29.535156 C 202.71875 29.285156 202.988281 29.066406 203.28125 28.871094 C 203.574219 28.675781 203.882812 28.511719 204.207031 28.375 C 204.53125 28.242188 204.863281 28.140625 205.207031 28.074219 C 205.550781 28.003906 205.898438 27.96875 206.25 27.96875 Z M 206.25 27.96875 " fill-opacity="1" fill-rule="nonzero"/></svg>