<svg xmlns="http://www.w3.org/2000/svg" xmlns:xlink="http://www.w3.org/1999/xlink" width="500" zoomAndPan="magnify" viewBox="0 0 375 374.999991" height="500" preserveAspectRatio="xMidYMid meet" version="1.0"><defs><clipPath id="b517cfd4be"><path d="M 4.773438 0.960938 L 368.167969 0.960938 L 368.167969 326.175781 L 4.773438 326.175781 Z M 4.773438 0.960938 " clip-rule="nonzero"/></clipPath><clipPath id="5ee274957e"><path d="M 165.386719 103.03125 L 208 103.03125 L 208 232 L 165.386719 232 Z M 165.386719 103.03125 " clip-rule="nonzero"/></clipPath><clipPath id="4bc1fb5ef8"><rect x="0" width="369" y="0" height="329"/></clipPath></defs><g transform="matrix(1, 0, 0, 1, 1, 23)"><g clip-path="url(#4bc1fb5ef8)"><g clip-path="url(#b517cfd4be)"><path fill="#ebebeb" d="M 318.660156 328.09375 L 54.253906 328.09375 C 33.449219 328.09375 17.664062 320.589844 9.804688 306.964844 C 1.933594 293.351562 3.339844 275.929688 13.726562 257.910156 L 145.929688 28.914062 C 156.347656 10.894531 170.726562 0.976562 186.472656 0.976562 C 202.199219 0.976562 216.582031 10.894531 226.980469 28.914062 L 359.1875 257.910156 C 369.589844 275.929688 370.996094 293.351562 363.121094 306.976562 C 355.25 320.589844 339.476562 328.09375 318.660156 328.09375 " fill-opacity="1" fill-rule="nonzero"/></g><path fill="#ff3131" d="M 54.253906 319.511719 C 17.847656 319.511719 2.957031 293.71875 21.171875 262.203125 L 153.363281 33.203125 C 171.566406 1.671875 201.363281 1.671875 219.550781 33.203125 L 351.769531 262.203125 C 369.972656 293.71875 355.082031 319.511719 318.675781 319.511719 L 54.253906 319.511719 " fill-opacity="1" fill-rule="nonzero"/><path fill="#ffffff" d="M 328.195312 268.15625 C 337.289062 283.914062 329.84375 296.816406 311.640625 296.816406 L 61.285156 296.816406 C 43.082031 296.816406 35.636719 283.914062 44.730469 268.15625 L 169.929688 51.335938 C 179.023438 35.578125 193.917969 35.578125 203.011719 51.335938 L 328.195312 268.15625 " fill-opacity="1" fill-rule="nonzero"/><path fill="#ffffff" d="M 222.761719 230.304688 L 222.761719 217.558594 C 218.726562 217.671875 216.140625 217.871094 214.507812 218.394531 C 214.09375 228.3125 212.148438 242.964844 186.472656 242.964844 C 160.808594 242.964844 158.847656 228.3125 158.421875 218.394531 C 156.789062 217.871094 154.214844 217.671875 150.164062 217.558594 L 150.164062 230.304688 C 158.71875 243.417969 167.402344 257.242188 179.90625 258.308594 C 182.265625 258.636719 190.664062 258.636719 193.035156 258.308594 C 205.527344 257.242188 214.222656 243.417969 222.761719 230.304688 " fill-opacity="1" fill-rule="nonzero"/><path fill="#ffffff" d="M 143.558594 186.582031 L 143.558594 174.132812 L 145.390625 174.132812 C 145.390625 174.132812 145.40625 191.640625 145.378906 192.421875 C 145.277344 195.234375 143.574219 196.882812 140.902344 196.953125 C 141.03125 203.035156 139.890625 213.050781 149.726562 213.324219 C 160.011719 213.621094 165.414062 214.21875 165.554688 224.109375 C 170.726562 231.242188 183.574219 230.65625 186.472656 230.65625 C 189.371094 230.65625 202.199219 231.242188 207.386719 224.109375 C 207.53125 214.21875 212.914062 213.621094 223.214844 213.324219 C 233.050781 213.050781 231.914062 203.035156 232.039062 196.953125 C 229.371094 196.882812 227.664062 195.234375 227.550781 192.421875 C 227.523438 191.582031 227.550781 174.132812 227.550781 174.132812 L 229.371094 174.132812 L 229.371094 186.582031 C 245.527344 173.222656 247.527344 120.082031 186.472656 120.082031 C 125.398438 120.082031 127.402344 173.222656 143.558594 186.582031 Z M 197.539062 174.972656 C 215.601562 173.324219 219.253906 181.238281 219.253906 190.601562 C 219.253906 193.882812 219.253906 197.5625 219.253906 197.5625 C 219.253906 197.5625 209.078125 197.890625 205.46875 197.335938 C 188.289062 194.652344 189.652344 175.683594 197.539062 174.972656 Z M 195.167969 209.742188 C 195.621094 216.890625 187.992188 216.519531 186.472656 212.855469 C 184.921875 216.578125 177.320312 216.890625 177.761719 209.742188 C 178.101562 204.46875 186.472656 193.8125 186.472656 193.8125 C 186.472656 193.8125 194.828125 204.46875 195.167969 209.742188 Z M 154.003906 190.601562 C 154.003906 181.238281 157.65625 173.324219 175.6875 174.972656 C 183.585938 175.683594 184.949219 194.652344 167.757812 197.335938 C 164.164062 197.890625 154.003906 197.5625 154.003906 197.5625 C 154.003906 197.5625 154.003906 193.882812 154.003906 190.601562 " fill-opacity="1" fill-rule="nonzero"/><path fill="#ffffff" d="M 196.601562 231.324219 C 195.378906 231.554688 194.160156 231.710938 193.007812 231.824219 L 193.007812 235.519531 C 194.257812 235.347656 195.453125 235.132812 196.601562 234.878906 L 196.601562 231.324219 " fill-opacity="1" fill-rule="nonzero"/><path fill="#ffffff" d="M 193.007812 241.074219 C 194.273438 240.902344 195.464844 240.660156 196.601562 240.40625 L 196.601562 236.726562 C 195.4375 236.980469 194.242188 237.179688 193.007812 237.351562 L 193.007812 241.074219 " fill-opacity="1" fill-rule="nonzero"/><path fill="#ffffff" d="M 191.1875 231.953125 C 189.570312 232.050781 188.21875 232.035156 187.378906 232.023438 L 187.378906 235.929688 C 188.660156 235.914062 189.9375 235.84375 191.1875 235.730469 L 191.1875 231.953125 " fill-opacity="1" fill-rule="nonzero"/><path fill="#ffffff" d="M 203.59375 237.863281 C 204.703125 237.28125 205.710938 236.625 206.605469 235.886719 L 206.5625 232.746094 C 205.683594 233.371094 204.6875 233.941406 203.59375 234.453125 L 203.59375 237.863281 " fill-opacity="1" fill-rule="nonzero"/><path fill="#ffffff" d="M 187.378906 241.515625 C 188.703125 241.472656 189.964844 241.386719 191.1875 241.257812 L 191.1875 237.550781 C 189.9375 237.664062 188.660156 237.734375 187.378906 237.75 L 187.378906 241.515625 " fill-opacity="1" fill-rule="nonzero"/><path fill="#ffffff" d="M 201.773438 229.933594 C 200.679688 230.332031 199.570312 230.671875 198.433594 230.941406 L 198.433594 234.4375 C 199.613281 234.097656 200.722656 233.726562 201.773438 233.285156 L 201.773438 229.933594 " fill-opacity="1" fill-rule="nonzero"/><path fill="#ffffff" d="M 203.59375 229.125 L 203.59375 232.433594 C 204.714844 231.851562 205.695312 231.183594 206.550781 230.445312 L 206.507812 227.207031 C 205.640625 227.957031 204.660156 228.582031 203.59375 229.125 " fill-opacity="1" fill-rule="nonzero"/><path fill="#ffffff" d="M 198.433594 239.949219 C 199.628906 239.609375 200.722656 239.199219 201.773438 238.742188 L 201.773438 235.234375 C 200.707031 235.644531 199.601562 235.988281 198.433594 236.300781 L 198.433594 239.949219 " fill-opacity="1" fill-rule="nonzero"/><path fill="#ffffff" d="M 171.152344 238.742188 C 172.21875 239.199219 173.3125 239.609375 174.492188 239.949219 L 174.492188 236.3125 C 173.339844 236 172.21875 235.660156 171.152344 235.246094 L 171.152344 238.742188 " fill-opacity="1" fill-rule="nonzero"/><path fill="#ffffff" d="M 174.492188 230.941406 C 173.371094 230.671875 172.246094 230.332031 171.152344 229.917969 L 171.152344 233.300781 C 172.203125 233.726562 173.328125 234.109375 174.492188 234.4375 L 174.492188 230.941406 " fill-opacity="1" fill-rule="nonzero"/><path fill="#ffffff" d="M 185.5625 232.023438 C 185.261719 232.035156 184.921875 232.035156 184.523438 232.035156 C 183.769531 232.035156 182.820312 232.023438 181.738281 231.953125 L 181.738281 235.730469 C 183.003906 235.84375 184.269531 235.914062 185.5625 235.929688 L 185.5625 232.023438 " fill-opacity="1" fill-rule="nonzero"/><path fill="#ffffff" d="M 166.320312 235.886719 C 167.21875 236.625 168.253906 237.28125 169.335938 237.863281 L 169.335938 234.464844 C 168.253906 233.96875 167.246094 233.386719 166.363281 232.761719 L 166.320312 235.886719 " fill-opacity="1" fill-rule="nonzero"/><path fill="#ffffff" d="M 169.335938 229.109375 C 168.28125 228.582031 167.289062 227.957031 166.4375 227.207031 L 166.394531 230.460938 C 167.230469 231.199219 168.226562 231.851562 169.335938 232.449219 L 169.335938 229.109375 " fill-opacity="1" fill-rule="nonzero"/><path fill="#ffffff" d="M 181.738281 241.257812 C 182.960938 241.386719 184.242188 241.472656 185.5625 241.515625 L 185.5625 237.75 C 184.269531 237.734375 183.003906 237.675781 181.738281 237.550781 L 181.738281 241.257812 " fill-opacity="1" fill-rule="nonzero"/><path fill="#ffffff" d="M 179.921875 231.824219 C 178.785156 231.710938 177.574219 231.554688 176.3125 231.324219 L 176.3125 234.894531 C 177.476562 235.148438 178.683594 235.363281 179.921875 235.53125 L 179.921875 231.824219 " fill-opacity="1" fill-rule="nonzero"/><path fill="#ffffff" d="M 176.3125 240.40625 C 177.460938 240.660156 178.65625 240.902344 179.921875 241.074219 L 179.921875 237.351562 C 178.683594 237.207031 177.492188 236.996094 176.3125 236.738281 L 176.3125 240.40625 " fill-opacity="1" fill-rule="nonzero"/><path fill="#ffffff" d="M 155.921875 246.1875 L 144.269531 251.617188 C 140.902344 253.136719 138.683594 252.226562 135.617188 250.265625 C 132.574219 248.320312 128.953125 247.113281 125.457031 248.746094 C 120.808594 250.921875 118.804688 256.449219 120.980469 261.09375 C 122.429688 264.222656 125.398438 266.152344 128.597656 266.421875 L 129.648438 268.667969 C 127.800781 271.296875 127.375 274.808594 128.808594 277.933594 C 130.996094 282.59375 136.523438 284.597656 141.171875 282.4375 C 144.324219 280.960938 146.046875 277.917969 146.515625 274.707031 C 147.226562 269.75 147.480469 267.84375 151.304688 266.066406 L 167.984375 258.28125 C 163.523438 255.3125 159.585938 251.035156 155.921875 246.1875 " fill-opacity="1" fill-rule="nonzero"/><path fill="#ffffff" d="M 145.972656 230.785156 L 145.972656 217.03125 C 141.457031 215.867188 139.125 212.78125 137.945312 209.328125 L 128.652344 204.980469 C 125.328125 203.375 124.589844 201.089844 124.121094 197.492188 C 123.652344 193.898438 122.246094 190.359375 118.761719 188.726562 C 114.101562 186.550781 108.574219 188.570312 106.414062 193.230469 C 104.953125 196.34375 105.378906 199.867188 107.238281 202.496094 L 106.203125 204.738281 C 102.992188 205.011719 100.007812 206.941406 98.558594 210.070312 C 96.382812 214.714844 98.402344 220.242188 103.0625 222.402344 C 106.203125 223.894531 109.640625 223.242188 112.410156 221.550781 C 116.660156 218.90625 118.28125 217.871094 122.101562 219.644531 L 145.972656 230.785156 " fill-opacity="1" fill-rule="nonzero"/><path fill="#ffffff" d="M 274.371094 210.070312 C 272.921875 206.941406 269.953125 205.011719 266.742188 204.738281 L 265.703125 202.496094 C 267.550781 199.867188 267.976562 196.34375 266.527344 193.230469 C 264.351562 188.570312 258.824219 186.550781 254.164062 188.726562 C 250.683594 190.359375 249.277344 193.898438 248.820312 197.492188 C 248.351562 201.089844 247.613281 203.375 244.289062 204.980469 L 234.980469 209.328125 C 233.804688 212.78125 231.488281 215.867188 226.96875 217.03125 L 226.96875 230.785156 L 250.839844 219.644531 C 254.664062 217.871094 256.28125 218.90625 260.53125 221.550781 C 263.300781 223.242188 266.726562 223.894531 269.878906 222.402344 C 274.527344 220.242188 276.542969 214.714844 274.371094 210.070312 " fill-opacity="1" fill-rule="nonzero"/><path fill="#ffffff" d="M 247.472656 248.746094 C 243.992188 247.113281 240.367188 248.320312 237.3125 250.265625 C 234.257812 252.226562 232.027344 253.136719 228.660156 251.617188 L 217.007812 246.1875 C 213.339844 251.035156 209.417969 255.3125 204.945312 258.28125 L 221.640625 266.066406 C 225.460938 267.84375 225.703125 269.75 226.414062 274.707031 C 226.882812 277.917969 228.601562 280.960938 231.769531 282.4375 C 236.402344 284.597656 241.945312 282.59375 244.105469 277.933594 C 245.566406 274.808594 245.140625 271.296875 243.28125 268.667969 L 244.316406 266.421875 C 247.527344 266.152344 250.5 264.222656 251.976562 261.09375 C 254.136719 256.449219 252.117188 250.921875 247.472656 248.746094 " fill-opacity="1" fill-rule="nonzero"/><g clip-path="url(#5ee274957e)"><path fill="#ff3131" d="M 186.449219 231.847656 C 178.378906 231.847656 171.726562 225.953125 171.3125 218.4375 L 165.828125 118.246094 C 165.386719 110.167969 172.292969 103.394531 180.964844 103.394531 L 191.933594 103.394531 C 200.605469 103.394531 207.511719 110.167969 207.070312 118.246094 L 201.585938 218.4375 C 201.175781 225.953125 194.519531 231.847656 186.449219 231.847656 Z M 186.449219 231.847656 " fill-opacity="1" fill-rule="nonzero"/></g><path fill="#ff3131" d="M 204.324219 269.296875 C 204.324219 269.882812 204.292969 270.464844 204.238281 271.050781 C 204.179688 271.632812 204.09375 272.210938 203.980469 272.785156 C 203.863281 273.359375 203.722656 273.925781 203.554688 274.484375 C 203.382812 275.046875 203.1875 275.597656 202.960938 276.136719 C 202.738281 276.679688 202.488281 277.207031 202.210938 277.722656 C 201.9375 278.238281 201.636719 278.742188 201.308594 279.226562 C 200.984375 279.714844 200.636719 280.183594 200.265625 280.636719 C 199.894531 281.089844 199.5 281.523438 199.085938 281.933594 C 198.671875 282.347656 198.242188 282.742188 197.789062 283.113281 C 197.335938 283.484375 196.867188 283.832031 196.378906 284.15625 C 195.894531 284.484375 195.390625 284.785156 194.875 285.058594 C 194.359375 285.335938 193.832031 285.585938 193.289062 285.808594 C 192.75 286.035156 192.199219 286.230469 191.636719 286.402344 C 191.078125 286.570312 190.511719 286.710938 189.9375 286.828125 C 189.363281 286.941406 188.785156 287.027344 188.203125 287.085938 C 187.617188 287.140625 187.035156 287.171875 186.449219 287.171875 C 185.863281 287.171875 185.28125 287.140625 184.699219 287.085938 C 184.117188 287.027344 183.535156 286.941406 182.964844 286.828125 C 182.390625 286.710938 181.820312 286.570312 181.261719 286.402344 C 180.703125 286.230469 180.152344 286.035156 179.609375 285.808594 C 179.070312 285.585938 178.539062 285.335938 178.023438 285.058594 C 177.507812 284.785156 177.007812 284.484375 176.519531 284.15625 C 176.035156 283.832031 175.5625 283.484375 175.113281 283.113281 C 174.660156 282.742188 174.226562 282.347656 173.8125 281.933594 C 173.398438 281.523438 173.003906 281.089844 172.632812 280.636719 C 172.261719 280.183594 171.914062 279.714844 171.589844 279.226562 C 171.265625 278.742188 170.964844 278.238281 170.6875 277.722656 C 170.410156 277.207031 170.160156 276.679688 169.9375 276.136719 C 169.714844 275.597656 169.515625 275.046875 169.347656 274.484375 C 169.175781 273.925781 169.035156 273.359375 168.921875 272.785156 C 168.804688 272.210938 168.71875 271.632812 168.664062 271.050781 C 168.605469 270.464844 168.578125 269.882812 168.578125 269.296875 C 168.578125 268.710938 168.605469 268.128906 168.664062 267.546875 C 168.71875 266.964844 168.804688 266.382812 168.921875 265.8125 C 169.035156 265.238281 169.175781 264.667969 169.347656 264.109375 C 169.515625 263.550781 169.714844 263 169.9375 262.457031 C 170.160156 261.917969 170.410156 261.386719 170.6875 260.871094 C 170.964844 260.355469 171.265625 259.855469 171.589844 259.367188 C 171.914062 258.882812 172.261719 258.410156 172.632812 257.960938 C 173.003906 257.507812 173.398438 257.074219 173.8125 256.660156 C 174.226562 256.246094 174.660156 255.851562 175.113281 255.480469 C 175.5625 255.109375 176.035156 254.761719 176.519531 254.4375 C 177.007812 254.113281 177.507812 253.8125 178.023438 253.535156 C 178.539062 253.257812 179.070312 253.007812 179.609375 252.785156 C 180.152344 252.5625 180.703125 252.363281 181.261719 252.195312 C 181.820312 252.023438 182.390625 251.882812 182.964844 251.769531 C 183.535156 251.652344 184.117188 251.566406 184.699219 251.511719 C 185.28125 251.453125 185.863281 251.425781 186.449219 251.425781 C 187.035156 251.425781 187.617188 251.453125 188.203125 251.511719 C 188.785156 251.566406 189.363281 251.652344 189.9375 251.769531 C 190.511719 251.882812 191.078125 252.023438 191.636719 252.195312 C 192.199219 252.363281 192.75 252.5625 193.289062 252.785156 C 193.832031 253.007812 194.359375 253.257812 194.875 253.535156 C 195.390625 253.8125 195.894531 254.113281 196.378906 254.4375 C 196.867188 254.761719 197.335938 255.109375 197.789062 255.480469 C 198.242188 255.851562 198.671875 256.246094 199.085938 256.660156 C 199.5 257.074219 199.894531 257.507812 200.265625 257.960938 C 200.636719 258.410156 200.984375 258.882812 201.308594 259.367188 C 201.636719 259.855469 201.9375 260.355469 202.210938 260.871094 C 202.488281 261.386719 202.738281 261.917969 202.960938 262.457031 C 203.1875 263 203.382812 263.550781 203.554688 264.109375 C 203.722656 264.667969 203.863281 265.238281 203.980469 265.8125 C 204.09375 266.382812 204.179688 266.964844 204.238281 267.546875 C 204.292969 268.128906 204.324219 268.710938 204.324219 269.296875 Z M 204.324219 269.296875 " fill-opacity="1" fill-rule="nonzero"/></g></g></svg>