<svg xmlns="http://www.w3.org/2000/svg" xmlns:xlink="http://www.w3.org/1999/xlink" width="500" zoomAndPan="magnify" viewBox="0 0 375 374.999991" height="500" preserveAspectRatio="xMidYMid meet" version="1.0"><defs><clipPath id="bc89f482eb"><path d="M 74.589844 5 L 300.339844 5 L 300.339844 371.117188 L 74.589844 371.117188 Z M 74.589844 5 " clip-rule="nonzero"/></clipPath></defs><g clip-path="url(#bc89f482eb)"><path fill="#b4dd30" d="M 221.511719 150.589844 C 221.535156 150.15625 221.550781 149.710938 221.550781 149.242188 L 221.550781 45.675781 L 229.789062 45.675781 C 240.765625 45.675781 249.742188 36.699219 249.742188 25.722656 C 249.742188 14.75 240.765625 5.769531 229.789062 5.769531 L 145.214844 5.769531 C 134.242188 5.769531 125.261719 14.75 125.261719 25.722656 C 125.261719 36.699219 134.242188 45.675781 145.214844 45.675781 L 153.457031 45.675781 L 153.457031 149.242188 C 153.457031 149.710938 153.46875 150.15625 153.492188 150.589844 C 107.785156 165.019531 74.644531 207.753906 74.644531 258.234375 C 74.644531 320.5625 125.171875 371.09375 187.503906 371.09375 C 249.835938 371.09375 300.363281 320.5625 300.363281 258.234375 C 300.363281 207.753906 267.222656 165.019531 221.511719 150.589844 " fill-opacity="1" fill-rule="nonzero"/></g><path fill="#ffffff" d="M 93.234375 232.269531 C 93.246094 232.21875 93.261719 232.160156 93.277344 232.105469 C 93.117188 232.671875 92.964844 233.242188 92.820312 233.816406 C 92.953125 233.296875 93.089844 232.785156 93.234375 232.269531 " fill-opacity="1" fill-rule="nonzero"/><path fill="#ffffff" d="M 285.257812 258.234375 C 285.257812 257.957031 285.253906 257.683594 285.253906 257.40625 C 285.257812 257.683594 285.257812 257.960938 285.257812 258.234375 " fill-opacity="1" fill-rule="nonzero"/><path fill="#ffffff" d="M 273.113281 305.460938 C 272.917969 305.808594 272.722656 306.160156 272.523438 306.507812 C 272.722656 306.160156 272.917969 305.808594 273.113281 305.460938 " fill-opacity="1" fill-rule="nonzero"/><path fill="#ffffff" d="M 207.855469 162.597656 L 207.855469 45.675781 L 167.148438 45.675781 L 167.148438 162.597656 C 131.628906 170.121094 103.230469 196.933594 93.429688 231.554688 C 93.535156 231.511719 93.636719 231.46875 93.742188 231.425781 C 94.261719 229.90625 95.03125 228.484375 96.054688 227.253906 C 98.636719 224.152344 102.261719 221.789062 105.835938 219.9375 C 107.984375 213.65625 112.472656 208.21875 116.476562 203.066406 C 121.382812 196.761719 126.964844 191.046875 133.570312 186.519531 C 135.386719 185.273438 138.078125 186.1875 139.125 187.976562 C 140.289062 189.964844 139.476562 192.292969 137.671875 193.53125 C 131.828125 197.535156 126.921875 202.808594 122.570312 208.359375 C 120.472656 211.027344 118.128906 213.910156 116.230469 217.023438 C 119.679688 216.863281 123.152344 217.507812 126.421875 219.128906 C 130.71875 221.257812 135.050781 224.433594 139.679688 225.777344 C 144.085938 227.058594 149.308594 225.371094 153.617188 224.367188 C 162.003906 222.417969 170.539062 221.078125 179.15625 221.964844 C 186.636719 222.734375 192.914062 226.175781 199.03125 230.359375 C 203.851562 233.652344 208 238.246094 214.1875 238.6875 C 225.039062 239.46875 234.960938 230.175781 245.203125 228.039062 C 254.566406 226.089844 264.839844 225.53125 273.808594 229.515625 C 277.742188 231.265625 280.46875 233.960938 282.644531 237.117188 L 282.945312 237.027344 C 283.007812 237.289062 283.058594 237.546875 283.113281 237.808594 C 284.277344 243.269531 284.988281 248.898438 285.1875 254.664062 C 285.222656 255.53125 285.246094 256.398438 285.253906 257.273438 C 284.800781 210.6875 251.773438 171.902344 207.855469 162.597656 " fill-opacity="1" fill-rule="nonzero"/><path fill="#ffffff" d="M 240.96875 340.085938 C 240.6875 340.269531 240.402344 340.453125 240.117188 340.636719 C 240.402344 340.453125 240.6875 340.269531 240.96875 340.085938 " fill-opacity="1" fill-rule="nonzero"/><path fill="#ffffff" d="M 91.324219 240.671875 C 91.445312 239.984375 91.578125 239.300781 91.714844 238.617188 C 90.421875 244.953125 89.746094 251.515625 89.746094 258.234375 C 89.746094 285.230469 100.6875 309.667969 118.378906 327.359375 C 100.6875 309.667969 89.746094 285.230469 89.746094 258.234375 C 89.746094 252.238281 90.289062 246.371094 91.324219 240.671875 " fill-opacity="1" fill-rule="nonzero"/><path fill="#ffffff" d="M 243.554688 338.332031 C 243.28125 338.523438 243.007812 338.714844 242.730469 338.902344 C 243.007812 338.714844 243.28125 338.523438 243.554688 338.332031 " fill-opacity="1" fill-rule="nonzero"/><path fill="#ffffff" d="M 243.636719 338.273438 C 255.203125 330.148438 264.929688 319.578125 272.0625 307.308594 C 264.929688 319.578125 255.203125 330.148438 243.636719 338.273438 " fill-opacity="1" fill-rule="nonzero"/><path fill="#ffffff" d="M 242.527344 339.046875 C 242.292969 339.203125 242.054688 339.363281 241.816406 339.523438 C 242.054688 339.363281 242.292969 339.203125 242.527344 339.046875 " fill-opacity="1" fill-rule="nonzero"/><path fill="#ffffff" d="M 273.808594 229.515625 C 264.839844 225.53125 254.566406 226.089844 245.203125 228.039062 C 234.960938 230.175781 225.039062 239.46875 214.1875 238.6875 C 208 238.246094 203.851562 233.652344 199.03125 230.359375 C 192.914062 226.175781 186.636719 222.734375 179.15625 221.964844 C 170.539062 221.078125 162.003906 222.417969 153.617188 224.367188 C 149.308594 225.371094 144.085938 227.058594 139.679688 225.777344 C 135.050781 224.433594 130.71875 221.257812 126.421875 219.128906 C 123.152344 217.507812 119.679688 216.863281 116.230469 217.023438 C 114.695312 219.535156 113.449219 222.195312 112.859375 225.007812 C 112.40625 227.164062 109.878906 228.398438 107.863281 227.84375 C 105.65625 227.238281 104.578125 224.996094 105.027344 222.851562 C 105.238281 221.859375 105.507812 220.890625 105.835938 219.9375 C 102.261719 221.789062 98.636719 224.152344 96.054688 227.253906 C 95.03125 228.484375 94.261719 229.90625 93.742188 231.425781 C 99.746094 228.949219 104.808594 228.320312 111.328125 229.957031 C 119.226562 231.9375 125.441406 236.941406 130.34375 243.347656 C 135.210938 249.707031 140.117188 258.230469 148.65625 259.746094 C 155.90625 261.035156 160.160156 257.363281 165.800781 253.773438 C 178.015625 245.996094 189.890625 250.550781 197.632812 261.46875 C 207.660156 275.609375 227.832031 273.894531 242.113281 267.566406 C 251.480469 263.414062 259.628906 256.808594 265.910156 248.746094 C 270.707031 242.59375 275.191406 239.074219 282.644531 237.117188 C 280.46875 233.960938 277.742188 231.265625 273.808594 229.515625 " fill-opacity="1" fill-rule="nonzero"/><path fill="#b4dd30" d="M 285.253906 257.40625 C 285.253906 257.363281 285.253906 257.316406 285.253906 257.273438 C 285.246094 256.398438 285.222656 255.53125 285.1875 254.664062 C 284.988281 248.898438 284.277344 243.269531 283.113281 237.808594 C 283.058594 237.546875 283.007812 237.289062 282.945312 237.027344 L 282.644531 237.117188 C 275.191406 239.074219 270.707031 242.59375 265.910156 248.746094 C 259.628906 256.808594 251.480469 263.414062 242.113281 267.566406 C 227.832031 273.894531 207.660156 275.609375 197.632812 261.46875 C 189.890625 250.550781 178.015625 245.996094 165.800781 253.773438 C 160.160156 257.363281 155.90625 261.035156 148.65625 259.746094 C 140.117188 258.230469 135.210938 249.707031 130.34375 243.347656 C 125.441406 236.941406 119.226562 231.9375 111.328125 229.957031 C 104.808594 228.320312 99.746094 228.949219 93.742188 231.425781 C 93.636719 231.46875 93.535156 231.511719 93.429688 231.554688 C 93.378906 231.738281 93.324219 231.921875 93.277344 232.105469 C 93.261719 232.160156 93.246094 232.21875 93.234375 232.269531 C 93.089844 232.785156 92.953125 233.296875 92.820312 233.816406 C 92.410156 235.398438 92.042969 237 91.714844 238.617188 C 91.578125 239.300781 91.445312 239.984375 91.324219 240.671875 C 90.289062 246.371094 89.746094 252.238281 89.746094 258.234375 C 89.746094 285.230469 100.6875 309.667969 118.378906 327.359375 C 136.066406 345.050781 160.503906 355.992188 187.5 355.992188 C 206.871094 355.992188 224.925781 350.355469 240.117188 340.636719 C 240.402344 340.453125 240.6875 340.269531 240.96875 340.085938 C 241.253906 339.898438 241.535156 339.714844 241.816406 339.523438 C 242.054688 339.363281 242.292969 339.203125 242.527344 339.046875 C 242.59375 339 242.664062 338.953125 242.730469 338.902344 C 243.007812 338.714844 243.28125 338.523438 243.554688 338.332031 C 243.582031 338.316406 243.609375 338.296875 243.636719 338.273438 C 255.203125 330.148438 264.929688 319.578125 272.0625 307.308594 C 272.21875 307.046875 272.371094 306.78125 272.523438 306.507812 C 272.722656 306.160156 272.917969 305.808594 273.113281 305.460938 C 280.851562 291.460938 285.257812 275.363281 285.257812 258.234375 C 285.257812 257.960938 285.257812 257.683594 285.253906 257.40625 " fill-opacity="1" fill-rule="nonzero"/><path fill="#ffffff" d="M 164.371094 33.875 L 210.636719 33.875 C 216.636719 33.875 221.546875 28.964844 221.546875 22.960938 C 221.546875 16.957031 216.636719 12.042969 210.636719 12.042969 L 164.371094 12.042969 C 158.367188 12.042969 153.453125 16.957031 153.453125 22.960938 C 153.453125 28.964844 158.367188 33.875 164.371094 33.875 " fill-opacity="1" fill-rule="nonzero"/><path fill="#b4dd30" d="M 148.8125 185.582031 C 149.171875 185.628906 149.53125 185.679688 149.890625 185.726562 C 150.625 185.726562 151.304688 185.542969 151.941406 185.175781 C 153.722656 184.34375 155.476562 183.441406 157.28125 182.652344 C 157.523438 182.554688 157.769531 182.457031 158.015625 182.367188 C 158.542969 182.238281 159.003906 182 159.394531 181.640625 C 159.839844 181.355469 160.1875 180.972656 160.441406 180.5 C 160.949219 179.628906 161.164062 178.347656 160.851562 177.371094 C 160.53125 176.390625 159.921875 175.441406 158.984375 174.945312 C 158.070312 174.464844 156.863281 174.15625 155.855469 174.535156 C 153.105469 175.574219 150.5 176.925781 147.84375 178.164062 C 146.96875 178.570312 146.222656 179.695312 145.976562 180.589844 C 145.707031 181.558594 145.832031 182.855469 146.386719 183.714844 C 146.945312 184.582031 147.777344 185.347656 148.8125 185.582031 " fill-opacity="1" fill-rule="nonzero"/><path fill="#b4dd30" d="M 107.863281 227.84375 C 109.878906 228.398438 112.40625 227.164062 112.859375 225.007812 C 113.449219 222.195312 114.695312 219.535156 116.230469 217.023438 C 118.128906 213.910156 120.472656 211.027344 122.570312 208.359375 C 126.921875 202.808594 131.828125 197.535156 137.671875 193.53125 C 139.476562 192.292969 140.289062 189.964844 139.125 187.976562 C 138.078125 186.1875 135.386719 185.273438 133.570312 186.519531 C 126.964844 191.046875 121.382812 196.761719 116.476562 203.066406 C 112.472656 208.21875 107.984375 213.65625 105.835938 219.9375 C 105.507812 220.890625 105.238281 221.859375 105.027344 222.851562 C 104.578125 224.996094 105.65625 227.238281 107.863281 227.84375 " fill-opacity="1" fill-rule="nonzero"/><path fill="#ffffff" d="M 219.3125 337.160156 C 220.226562 337.644531 221.429688 337.953125 222.441406 337.570312 C 225.191406 336.53125 227.792969 335.183594 230.457031 333.941406 C 231.328125 333.539062 232.074219 332.414062 232.320312 331.515625 C 232.585938 330.546875 232.46875 329.253906 231.910156 328.390625 C 231.351562 327.523438 230.519531 326.761719 229.484375 326.523438 C 229.125 326.476562 228.765625 326.425781 228.40625 326.378906 C 227.671875 326.382812 226.988281 326.566406 226.355469 326.933594 C 224.570312 327.765625 222.816406 328.667969 221.007812 329.457031 C 220.769531 329.554688 220.523438 329.648438 220.28125 329.738281 C 219.753906 329.867188 219.292969 330.109375 218.902344 330.46875 C 218.457031 330.753906 218.109375 331.132812 217.855469 331.605469 C 217.347656 332.476562 217.128906 333.757812 217.445312 334.734375 C 217.765625 335.714844 218.375 336.664062 219.3125 337.160156 " fill-opacity="1" fill-rule="nonzero"/><path fill="#ffffff" d="M 270.433594 284.261719 C 268.414062 283.707031 265.890625 284.941406 265.4375 287.097656 C 264.117188 293.398438 259.515625 298.921875 255.726562 303.746094 C 251.375 309.296875 246.46875 314.574219 240.628906 318.578125 C 238.820312 319.8125 238.007812 322.140625 239.167969 324.128906 C 240.214844 325.921875 242.90625 326.832031 244.726562 325.585938 C 251.332031 321.058594 256.914062 315.347656 261.816406 309.042969 C 266.429688 303.109375 271.683594 296.800781 273.265625 289.253906 C 273.71875 287.113281 272.640625 284.867188 270.433594 284.261719 " fill-opacity="1" fill-rule="nonzero"/><path fill="#ffffff" d="M 290.027344 250.890625 C 290.140625 251.101562 290.253906 251.304688 290.371094 251.511719 C 290.332031 251.175781 290.210938 250.972656 290.027344 250.890625 " fill-opacity="1" fill-rule="nonzero"/><path fill="#b4dd30" d="M 222.792969 252.34375 C 216.355469 261.238281 233.667969 268.472656 234.40625 257.863281 C 234.753906 252.882812 225.996094 247.304688 222.792969 252.34375 " fill-opacity="1" fill-rule="nonzero"/><path fill="#b4dd30" d="M 152.042969 240.507812 C 147.0625 240.761719 145.835938 249.304688 150.652344 248.75 L 150.929688 248.472656 C 155.839844 248.914062 158.070312 240.195312 152.042969 240.507812 " fill-opacity="1" fill-rule="nonzero"/></svg>